<svg xmlns="http://www.w3.org/2000/svg" viewBox="0 0 538.98 97.12"><defs><style>.cls-1{fill:#111010;}.cls-2{fill:#fff;}.cls-3{fill:#ed2224;}</style></defs><g id="Layer_2" data-name="Layer 2"><g id="Layer_1-2" data-name="Layer 1"><rect class="cls-1" width="538.98" height="97.12" rx="10.27"/><path class="cls-2" d="M34.25,26.12c0-3.52,2.25-5.49,5.28-5.49A6.54,6.54,0,0,1,44,23L66.29,52.74h.14V26.12c0-3.52,2.25-5.49,5.28-5.49S77,22.6,77,26.12v40c0,3.52-2.25,5.49-5.28,5.49a6.74,6.74,0,0,1-4.44-2.33L45,39.85h-.14V66.12c0,3.52-2.25,5.49-5.28,5.49s-5.28-2-5.28-5.49Z"/><path class="cls-2" d="M117.27,68.23c0,12.18-8,18.31-19.51,18.31-4.15,0-16-2.05-16-7.61,0-1.9,2.11-4.44,4.08-4.44,3.24,0,6.83,3.17,12.68,3.17,4.92,0,8.59-2.88,8.59-8v-2.4H107c-2.12,3.1-5.57,4.79-10.21,4.79C86.14,72,81.14,62.66,81.14,52.6c0-10.22,6.48-19.72,16.69-19.72,3.45,0,7.4,1.55,9.3,4.65.63-2.68,2.25-4.23,5.07-4.23s5.07,2.25,5.07,5.63ZM99.17,42.17c-5.28,0-7.89,5.5-7.89,10.21,0,5.43,2.61,10.36,7.89,10.36s8-5.07,8-10S104.73,42.17,99.17,42.17Z"/><path class="cls-2" d="M131.21,55.83c.7,5,4.86,7.33,9.57,7.33,5.21,0,8.81-4.09,11.48-4.09a4.51,4.51,0,0,1,4.16,4.37c0,4.37-9,8.59-16.55,8.59-11.41,0-19-8.31-19-19.51,0-10.28,7.46-19.64,18.16-19.64,11,0,18.24,10,18.24,18.45,0,3-1.34,4.5-4.43,4.5Zm15.91-6.76c-.56-4.43-3.38-7.74-8.1-7.74-4.5,0-7.53,3.45-8,7.74Z"/><path class="cls-3" d="M160.71,38.37a5,5,0,0,1,5.21-5.07c2.68,0,4.93,1,4.93,4.23H171c1.9-2.82,3.94-4.23,7.11-4.23,2.47,0,4.93,1.76,4.93,5.42,0,3.31-3,3.52-6.05,4.93s-6.13,2.75-6.13,6.76V66c0,3.38-2.11,5.64-5.07,5.64s-5.07-2.26-5.07-5.64Z"/><path class="cls-3" d="M191.2,55.83c.7,5,4.86,7.33,9.58,7.33,5.21,0,8.8-4.09,11.47-4.09a4.51,4.51,0,0,1,4.16,4.37c0,4.37-9,8.59-16.55,8.59-11.41,0-19-8.31-19-19.51,0-10.28,7.46-19.64,18.17-19.64,11,0,18.23,10,18.23,18.45,0,3-1.33,4.5-4.43,4.5Zm15.91-6.76c-.56-4.43-3.38-7.74-8.09-7.74-4.51,0-7.54,3.45-8,7.74Z"/><path class="cls-3" d="M246.05,44.14c-2.53,0-4.79-2-8-2-5.77,0-8.52,5.14-8.52,10.35,0,5,3,10.22,8.52,10.22,2.54,0,6.34-2.12,7.54-2.12a4.45,4.45,0,0,1,4.37,4.44c0,5.21-8.74,7-12.4,7-10.91,0-18.17-8.94-18.17-19.51,0-10.28,7.47-19.64,18.17-19.64,4,0,12.4,1.48,12.4,6.41C249.93,41.4,248.45,44.14,246.05,44.14Z"/><path class="cls-2" d="M345.6,20.4c0-3.38,2.11-5.64,5.07-5.64s5.07,2.26,5.07,5.64V44.06l11.12-10.78a6.83,6.83,0,0,1,4.58-2.18,4.51,4.51,0,0,1,4.29,4.58,5,5,0,0,1-2,4l-9,8,11.9,13.94A5.06,5.06,0,0,1,377.92,65a4.75,4.75,0,0,1-4.79,4.79c-1.83,0-3.24-1.13-4.86-3.1L355.88,51.45h-.14V63.77c0,3.38-2.12,5.64-5.07,5.64s-5.07-2.26-5.07-5.64Z"/><path class="cls-2" d="M391.44,21.45a5.81,5.81,0,0,1-5.71,5.85,5.94,5.94,0,0,1-5.7-5.85,5.71,5.71,0,0,1,11.41,0ZM380.66,36.73c0-3.38,2.11-5.63,5.07-5.63s5.07,2.25,5.07,5.63v27c0,3.38-2.11,5.64-5.07,5.64s-5.07-2.26-5.07-5.64Z"/><path class="cls-2" d="M396.43,36.73c0-3.38,2.12-5.63,5.07-5.63,2.61,0,4.3,1.41,4.65,3.73,2-2.74,5-4.15,9.79-4.15,8,0,13.87,5.07,13.87,13.66V63.77c0,3.38-2.11,5.64-5.07,5.64s-5.07-2.26-5.07-5.64V46.1c0-4.72-3-7-6.62-7-4.15,0-6.48,3-6.48,7V63.77c0,3.38-2.11,5.64-5.07,5.64s-5.07-2.26-5.07-5.64Z"/><path class="cls-2" d="M442.13,58.84a5.5,5.5,0,1,1-5.49,5.5A5.51,5.51,0,0,1,442.13,58.84Z"/><path class="cls-2" d="M465.09,21.45a5.81,5.81,0,0,1-5.71,5.85,6,6,0,0,1-5.7-5.85,5.71,5.71,0,0,1,11.41,0ZM454.31,36.73c0-3.38,2.12-5.63,5.07-5.63s5.07,2.25,5.07,5.63v27c0,3.38-2.11,5.64-5.07,5.64s-5.07-2.26-5.07-5.64Z"/><path class="cls-2" d="M504.73,63.77c0,3.38-2.11,5.64-5.07,5.64s-4.43-1.55-5.07-4.23c-1.9,3.1-5.84,4.65-9.29,4.65-10.21,0-16.69-9.51-16.69-19.08,0-9.86,5.42-20.07,16.33-20.07a14.65,14.65,0,0,1,9.65,3.52V20.4c0-3.38,2.11-5.64,5.07-5.64s5.07,2.26,5.07,5.64ZM486.63,40c-5.28,0-7.88,5.56-7.88,10.35s2.6,10.21,7.88,10.21c5.57,0,8-5.63,8-10.56S492.06,40,486.63,40Z"/><path class="cls-2" d="M317.09,72c3-.81,6.23-1.65,9.48-2.61A15.28,15.28,0,0,0,329.38,68a5.67,5.67,0,0,0,3.15-5.43c0-10.25,0-20.5,0-30.76,0-1,0-2,0-3A4.63,4.63,0,0,0,327.62,24q-6.45,0-12.91,0a1.57,1.57,0,0,1-1.49-.77c-1.3-2-2.72-3.87-4-5.87a3.87,3.87,0,0,0-3.43-2q-8.81,0-17.62.05a3.33,3.33,0,0,0-2.82,1.69c-1.35,2.07-2.81,4.07-4.17,6.13a1.57,1.57,0,0,1-1.48.79c-4.16,0-8.32,0-12.48,0-3.49,0-5.34,1.82-5.34,5.28,0,11,0,22.09,0,33.13a6.1,6.1,0,0,0,3.6,5.93A36.07,36.07,0,0,0,276,71.52a10.24,10.24,0,0,1,1.68.4c-.27,0-.55,0-.82,0-3.77,0-7.54-.13-11.29,0-4.17.19-7.44-2.65-8.15-7.09a20.08,20.08,0,0,1-.21-3q0-16.23,0-32.48a10.6,10.6,0,0,1,2.12-6.62c1.93-2.55,4.64-3.49,7.72-3.53q5-.06,10,0a1.83,1.83,0,0,0,1.84-.93c.8-1.32,1.78-2.52,2.58-3.83a7.81,7.81,0,0,1,6.81-3.85q9-.19,18,0a7.71,7.71,0,0,1,6.65,3.74c.89,1.42,1.86,2.8,2.87,4.14a1.87,1.87,0,0,0,1.28.68c3.3.05,6.6,0,9.89,0,6.37,0,10.29,3.95,10.29,10.36,0,10.9,0,21.8,0,32.69a14.22,14.22,0,0,1-1,5.2A6.81,6.81,0,0,1,329.29,72C325.1,72,320.91,72,317.09,72Zm-19.6-45.84a23.55,23.55,0,1,0,23.26,23.55A23.54,23.54,0,0,0,297.49,26.13Zm16.87,23.51a17.16,17.16,0,1,1-17.13-17.09A17.22,17.22,0,0,1,314.36,49.64ZM284.14,24H310.5C304.17,22.47,289.61,22.48,284.14,24Zm-16,6.64a2.08,2.08,0,0,0,2,2.07,2.05,2.05,0,0,0,2.05-1.94,2,2,0,0,0-2-2.1A2,2,0,0,0,268.17,30.62Zm29,5.9a13.15,13.15,0,1,0,13.12,13.12A13.14,13.14,0,0,0,297.21,36.52Zm5,2.88c1.44,1,2.79,2.18,4.12,3.34a.91.91,0,0,1,0,1.5,1,1,0,0,1-1.48-.25,10.24,10.24,0,0,0-5.15-3.5,1.57,1.57,0,0,1-.74-1.18c0-.27.53-.59.83-.9A11.24,11.24,0,0,1,302.17,39.4Zm5.31,9.23c-.85,0-1.05-.7-1.09-1.41s.32-1.13,1-1.09c.89.06,1,.79,1.09,1.79C308.23,48.11,307.86,48.62,307.48,48.63Zm-11.33,1.09a.92.92,0,0,1,1.07-1.13,1.6,1.6,0,0,1,1,1.09c0,.39-.49.85-.77,1.27H297C296.71,50.55,296.24,50.17,296.15,49.72Zm2.75-10.41a1.57,1.57,0,0,0,.74,1.18,10.24,10.24,0,0,1,5.15,3.5,1,1,0,0,0,1.48.25.91.91,0,0,0,0-1.5c-1.33-1.16-2.68-2.31-4.12-3.34a11.24,11.24,0,0,0-2.44-1C299.43,38.72,298.88,39,298.9,39.31Zm8.49,6.82c-.68,0-1,.41-1,1.09s.24,1.44,1.09,1.41c.38,0,.75-.52,1-.71C308.36,46.92,308.28,46.19,307.39,46.13ZM297.46,51c.28-.42.81-.88.77-1.27a1.6,1.6,0,0,0-1-1.09.92.92,0,0,0-1.07,1.13c.09.45.56.83.86,1.24Z"/></g></g></svg>